<svg width="154" height="40" viewBox="0 0 154 40" fill="none" xmlns="http://www.w3.org/2000/svg">
<rect width="154" height="40" fill="#727272"/>
<g clip-path="url(#clip0_0_1)">
<rect width="360" height="800" transform="translate(-103 -380)" fill="white"/>
<g clip-path="url(#clip1_0_1)">
<path d="M31.7083 33.3971L30.7635 30.0208H15.2326L13.6911 33.3971C12.68 35.4096 11.7518 37.605 10.8899 40H0C2.63545 35.6424 4.07749 33.2308 4.2764 32.7817L21.1665 0H30.3657L41.2059 32.7817C41.7529 34.4449 42.7805 36.8565 44.2889 40H33.3327C32.8852 37.605 32.3382 35.4096 31.6917 33.3971H31.7083ZM24.9125 9.44699L18.1664 23.8836H29.0066L24.9125 9.44699Z" fill="#A5CC2B"/>
<path d="M74.6546 16.0498L75.1021 10.9105C75.4999 6.37 75.6657 2.76085 75.5994 0.0498351H85.0638L81.583 39.9334H72.5827L74.1076 22.5363H58.3115L56.7866 39.9334H47.7199L50.2559 10.8939C50.6537 6.4199 50.8361 2.81075 50.8029 0.0332031H60.2674L58.875 16.0332H74.6712L74.6546 16.0498Z" fill="#A5CC2B"/>
<path d="M91.1303 32.6984C90.4673 34.4947 89.2574 35.8751 87.4672 36.8231C85.6771 37.7712 83.7378 38.2535 81.6659 38.2535C78.8481 38.2535 76.2956 37.4053 73.975 35.6922L75.9972 33.6464C78.0525 35.0934 80.0084 35.8252 81.8814 35.8252C83.2571 35.8252 84.5168 35.5258 85.6771 34.9105C86.8374 34.2951 87.5335 33.4801 87.7822 32.4489C88.18 30.7691 87.3678 29.6381 85.3456 29.0726C85.0307 28.9895 84.4837 28.8564 83.7047 28.6735C82.9256 28.4905 82.3786 28.3574 82.0637 28.2743C80.4228 27.8086 79.2128 27.1766 78.4172 26.3782C77.6216 25.5799 77.3729 24.5154 77.7045 23.1683C78.1023 21.5217 79.0968 20.2078 80.7046 19.1932C82.3123 18.1953 84.1522 17.6797 86.1909 17.6797C88.7767 17.6797 91.1303 18.3782 93.252 19.7587L91.2298 21.7213C89.5226 20.6568 87.8153 20.1246 86.0915 20.1246C84.9478 20.1246 83.887 20.3907 82.9256 20.9396C81.9477 21.4884 81.3676 22.1703 81.1687 23.0186C81.0029 23.7337 81.1687 24.2992 81.6328 24.715C82.1134 25.1308 82.8428 25.4967 83.8041 25.8127C84.2516 25.9458 84.9644 26.1454 85.9423 26.3949C86.9202 26.6443 87.4175 26.7774 87.4507 26.7774C89.0087 27.2098 90.1524 27.9583 90.8817 28.9895C91.611 30.0373 91.7105 31.2847 91.1801 32.7317L91.1303 32.6984Z" fill="black"/>
<path d="M107.407 31.0022L109.247 23.2517C109.744 21.1561 110.092 19.4264 110.258 18.0625H113.689L110.672 30.7528C110.076 33.0812 108.982 34.9108 107.391 36.2746C105.799 37.6384 103.661 38.3203 101.009 38.3203C98.3571 38.3203 96.5504 37.6384 95.6222 36.258C94.694 34.8775 94.5117 33.048 95.0255 30.7361L96.8156 23.2351C97.3129 21.1727 97.661 19.443 97.8599 18.0459H101.291L98.208 30.9856C97.5449 34.2787 98.6721 35.9087 101.556 35.9087C104.44 35.9087 106.429 34.2621 107.374 30.9856L107.407 31.0022Z" fill="black"/>
<path d="M129.021 37.8879H125.126L120.054 22.3702L116.358 37.8879H113.142L116.64 23.2351C117.137 21.1727 117.468 19.443 117.651 18.0459H121.612L126.8 33.7465L129.303 23.2351C129.8 21.1727 130.132 19.443 130.314 18.0459H133.745L129.021 37.8879Z" fill="black"/>
<path d="M143.939 29.7379L144.502 27.3595H152.707L150.635 36.0581C148.282 37.5217 145.563 38.2535 142.464 38.2535C139.364 38.2535 136.961 37.3221 135.618 35.4593C134.276 33.5965 133.961 31.2181 134.657 28.2909C135.121 26.3782 135.916 24.6152 137.044 23.0518C138.171 21.4718 139.662 20.1911 141.486 19.1932C143.326 18.1953 145.331 17.6797 147.519 17.6797C150.237 17.6797 152.409 18.4448 154 19.9915L151.713 21.9874C150.983 21.3221 150.254 20.8398 149.525 20.5238C148.795 20.2078 147.967 20.0581 146.989 20.0581C144.768 20.0581 142.828 20.8231 141.22 22.3533C139.596 23.8834 138.519 25.7462 138.005 27.9583C137.441 30.32 137.591 32.2327 138.436 33.6963C139.281 35.1599 140.939 35.8917 143.392 35.8917C145.116 35.8917 146.558 35.5757 147.718 34.9271L148.961 29.7379H143.972H143.939Z" fill="black"/>
</g>
</g>
<defs>
<clipPath id="clip0_0_1">
<rect width="360" height="800" fill="white" transform="translate(-103 -380)"/>
</clipPath>
<clipPath id="clip1_0_1">
<rect width="154" height="40" fill="white"/>
</clipPath>
</defs>
</svg>
