<svg width="144" height="38" viewBox="0 0 144 38" fill="none" xmlns="http://www.w3.org/2000/svg">
<rect width="144" height="38" fill="#F5F5F5"/>
<g clip-path="url(#clip0_0_1)">
<rect width="360" height="800" transform="translate(-108 -299)" fill="white"/>
<g clip-path="url(#clip1_0_1)">
<path d="M29.6493 31.7781L28.7659 28.5966H14.2435L12.8021 31.7781C11.8566 33.6744 10.9887 35.7431 10.1828 37.9999H0C2.46432 33.8938 3.81272 31.6213 3.99871 31.1982L19.7921 0.308594H28.3939L38.5302 31.1982C39.0417 32.7654 40.0026 35.0379 41.413 37.9999H31.1682C30.7498 35.7431 30.2383 33.6744 29.6338 31.7781H29.6493ZM23.2948 9.21032L16.9868 22.8137H27.123L23.2948 9.21032Z" fill="#A5CC2B"/>
<path d="M69.8069 15.4323L70.2254 10.5896C70.5974 6.31114 70.7523 2.9103 70.6903 0.35576H79.5402L76.2854 37.9373H67.8696L69.2954 21.5444H54.525L53.0991 37.9373H44.6212L46.9926 10.5739C47.3645 6.35816 47.535 2.95732 47.504 0.340088H56.3539L55.052 15.4166H69.8224L69.8069 15.4323Z" fill="#A5CC2B"/>
<path d="M85.2128 31.1196C84.5928 32.8122 83.4614 34.113 81.7875 35.0063C80.1136 35.8996 78.3003 36.3541 76.3629 36.3541C73.7281 36.3541 71.3413 35.5548 69.1714 33.9406L71.0623 32.0129C72.9842 33.3764 74.813 34.066 76.5644 34.066C77.8508 34.066 79.0287 33.7839 80.1136 33.204C81.1986 32.6241 81.8495 31.8562 82.082 30.8846C82.454 29.3017 81.6945 28.236 79.8037 27.7031C79.5092 27.6248 78.9977 27.4994 78.2693 27.327C77.5408 27.1546 77.0294 27.0292 76.7349 26.9509C75.2005 26.5121 74.0691 25.9165 73.3251 25.1643C72.5812 24.412 72.3487 23.409 72.6587 22.1395C73.0307 20.588 73.9606 19.3499 75.464 18.3939C76.9674 17.4536 78.6878 16.9678 80.5941 16.9678C83.0119 16.9678 85.2128 17.626 87.1966 18.9268L85.3058 20.7761C83.7094 19.7731 82.113 19.2716 80.5011 19.2716C79.4317 19.2716 78.4398 19.5223 77.5408 20.0395C76.6264 20.5567 76.0839 21.1992 75.898 21.9985C75.743 22.6724 75.898 23.2052 76.3319 23.597C76.7814 23.9889 77.4633 24.3336 78.3623 24.6314C78.7807 24.7568 79.4472 24.9448 80.3616 25.1799C81.2761 25.415 81.741 25.5404 81.772 25.5404C83.2289 25.9479 84.2983 26.6531 84.9803 27.6248C85.6622 28.6121 85.7552 29.7875 85.2593 31.151L85.2128 31.1196Z" fill="black"/>
<path d="M100.433 29.5213L102.153 22.2181C102.618 20.2434 102.943 18.6135 103.098 17.3284H106.307L103.486 29.2862C102.928 31.4803 101.905 33.2042 100.417 34.4893C98.9293 35.7744 96.9299 36.417 94.4501 36.417C91.9703 36.417 90.2809 35.7744 89.413 34.4736C88.545 33.1729 88.3746 31.4489 88.855 29.2705L90.5289 22.2024C90.9939 20.2591 91.3193 18.6292 91.5053 17.3127H94.7136L91.8308 29.5056C91.2108 32.6087 92.2648 34.1445 94.9616 34.1445C97.6584 34.1445 99.5182 32.593 100.402 29.5056L100.433 29.5213Z" fill="black"/>
<path d="M120.643 36.0095H117.001L112.258 21.3875L108.802 36.0095H105.795L109.066 22.2024C109.531 20.2591 109.84 18.6292 110.011 17.3127H113.715L118.566 32.1072L120.907 22.2024C121.372 20.2591 121.682 18.6292 121.852 17.3127H125.06L120.643 36.0095Z" fill="black"/>
<path d="M134.592 28.33L135.119 26.0889H142.791L140.854 34.2854C138.653 35.6645 136.111 36.3541 133.213 36.3541C130.314 36.3541 128.067 35.4765 126.812 33.7212C125.556 31.9659 125.262 29.7248 125.913 26.9665C126.347 25.1643 127.091 23.503 128.145 22.0298C129.199 20.541 130.593 19.3343 132.298 18.3939C134.019 17.4536 135.894 16.9678 137.94 16.9678C140.482 16.9678 142.512 17.6887 144 19.1462L141.861 21.0268C141.179 20.4 140.497 19.9455 139.815 19.6477C139.133 19.3499 138.358 19.2089 137.444 19.2089C135.367 19.2089 133.554 19.9298 132.05 21.3716C130.531 22.8134 129.524 24.5687 129.044 26.6531C128.517 28.8785 128.656 30.6808 129.447 32.06C130.237 33.4391 131.787 34.1287 134.081 34.1287C135.693 34.1287 137.041 33.8309 138.126 33.2197L139.288 28.33H134.623H134.592Z" fill="black"/>
</g>
</g>
<defs>
<clipPath id="clip0_0_1">
<rect width="360" height="800" fill="white" transform="translate(-108 -299)"/>
</clipPath>
<clipPath id="clip1_0_1">
<rect width="144" height="37.6913" fill="white" transform="translate(0 0.308594)"/>
</clipPath>
</defs>
</svg>
